<?xml version="1.0" encoding="utf-8"?>
<!-- Generator: Adobe Illustrator 28.1.0, SVG Export Plug-In . SVG Version: 6.00 Build 0)  -->
<svg version="1.1" id="Layer_1" xmlns="http://www.w3.org/2000/svg" xmlns:xlink="http://www.w3.org/1999/xlink" x="0px" y="0px"
	 viewBox="0 0 650.36 442.34" style="enable-background:new 0 0 650.36 442.34;" xml:space="preserve">
<style type="text/css">
	.st0{fill:#010101;}
</style>
<g>
	<path class="st0" d="M130.3,184.93h156.5l-25.78,27.37H95.66l36.57-136.86h27.37L130.3,184.93z"/>
	<path class="st0" d="M384.3,212.3H277.86l25.78-27.37h87.94c3.85,0,7.45-1.32,10.8-3.96c3.35-2.64,5.52-5.88,6.52-9.73
		c1.14-3.85,0.75-7.09-1.18-9.73c-1.92-2.64-4.81-3.96-8.66-3.96h-54.74c-11.41,0-20.03-3.99-25.87-11.98
		c-5.85-7.98-7.27-17.68-4.28-29.08c2.99-11.4,9.55-21.1,19.67-29.08c10.12-7.98,20.88-11.97,32.29-11.97h96.43l-31.64,27.37h-72.06
		c-3.85,0-7.45,1.32-10.8,3.96c-3.35,2.64-5.53,5.88-6.52,9.73c-1,3.85-0.54,7.09,1.39,9.73c1.92,2.64,4.81,3.96,8.66,3.96h54.74
		c11.4,0,20.03,3.99,25.88,11.98c5.84,7.99,7.2,17.68,4.06,29.08c-2.99,11.41-9.55,21.1-19.67,29.08
		C406.47,208.31,395.71,212.3,384.3,212.3z"/>
	<path class="st0" d="M563.27,48.07l-22.02,82.11h-51.58l14.54-54.74h-27.37L440.18,212.3h27.53l14.69-54.74h51.58l-14.76,54.74
		h27.37l51.32-191.6L563.27,48.07z"/>
	<path class="st0" d="M283.42,75.44l-7.33,27.37c-3.14,11.41-9.77,21.1-19.89,29.08c-10.13,7.99-20.89,11.98-32.29,11.98
		c-11.41,0-20.03-3.99-25.88-11.98c-5.85-7.98-7.2-17.68-4.06-29.08l7.27-27.37h-27.37l-7.27,27.37
		c-5.13,18.96-2.82,35.11,6.95,48.43c9.76,13.33,24.13,19.99,43.09,19.99c18.96,0,36.89-6.66,53.78-19.99
		c16.89-13.33,27.91-29.47,33.04-48.43l7.32-27.37H283.42z"/>
	<g>
		<path class="st0" d="M472.7,252.22c-9.76-13.33-24.13-20-43.09-20h-68.42l-12.24,45.81l-12.09,45.24l-12.24,45.81h68.43
			c18.96,0,36.88-6.66,53.78-19.99c16.89-13.33,27.9-29.48,33.04-48.44C484.85,281.69,482.46,265.55,472.7,252.22z M452.49,300.65
			c-3.13,11.41-9.76,21.1-19.88,29.08c-10.13,7.99-20.89,11.98-32.29,11.98h-41.06l4.95-18.44l12.14-45.24l4.94-18.43h41.05
			c11.41,0,20.03,3.99,25.88,11.97C454.06,279.56,455.49,289.25,452.49,300.65z"/>
	</g>
	<path class="st0" d="M142.32,369.08l-26.73-82.11h54.74c3.85,0,7.45-1.32,10.8-3.96c3.35-2.64,5.52-5.88,6.52-9.73
		c1-3.85,0.53-7.09-1.39-9.73c-1.92-2.64-4.81-3.96-8.66-3.96h-68.43L72.61,396.45l-34.86,27.37l51.32-191.6h95.8
		c11.4,0,20.03,3.99,25.88,11.97c5.84,7.99,7.27,17.68,4.28,29.08c-2.99,11.41-9.55,21.1-19.67,29.08
		c-10.12,7.99-20.89,11.98-32.29,11.98h-6.63l19.25,54.74H142.32z"/>
	<path class="st0" d="M240.47,232.22l-7.27,27.38h106.32l7.27-27.38H240.47z M211.17,341.71l-7.27,27.37h106.32l7.28-27.37H211.17z"
		/>
	<polygon class="st0" points="330.62,286.97 295.98,314.34 218.66,314.34 225.93,286.97 	"/>
	<path class="st0" d="M568.38,369.08H445.17l25.78-27.37h104.71c3.85,0,7.45-1.32,10.8-3.96c3.35-2.64,5.52-5.88,6.52-9.73
		c1.14-3.85,0.75-7.09-1.18-9.73c-1.92-2.64-4.81-3.96-8.66-3.96h-54.74c-11.41,0-20.03-3.99-25.87-11.98
		c-5.85-7.98-7.27-17.68-4.28-29.08c2.99-11.4,9.55-21.1,19.67-29.08c10.12-7.98,20.88-11.97,32.29-11.97h82.11l-34.64,27.37h-54.74
		c-3.85,0-7.45,1.32-10.8,3.96c-3.35,2.64-5.53,5.88-6.52,9.73c-1,3.85-0.54,7.09,1.39,9.73c1.92,2.64,4.81,3.96,8.66,3.96h54.74
		c11.4,0,20.03,3.99,25.88,11.98c5.84,7.99,7.2,17.68,4.06,29.08c-2.99,11.41-9.55,21.1-19.67,29.08
		C590.55,365.09,579.78,369.08,568.38,369.08z"/>
</g>
</svg>
